<svg width="387" height="110" viewBox="0 0 387 110" fill="none" xmlns="http://www.w3.org/2000/svg">
<path d="M5.9087 68H14.9707V35.0656L28.2257 68H35.9351L49.1901 35.0656V68H58.2521V21.6078H47.026L32.0804 56.571L17.1348 21.6078H5.9087V68ZM69.4979 29.0468H77.6132V21.6078H69.4979V29.0468ZM83.0234 29.0468H91.1386V21.6078H83.0234V29.0468ZM96.2783 34.1864H88.163V54.2717C88.163 58.8027 84.8493 61.7783 79.9125 61.7783C74.9757 61.7783 71.662 58.8027 71.662 54.2717V34.1864H63.5468V55.2185C63.5468 63.469 69.7008 68.9468 78.9657 68.9468C82.2795 68.9468 85.9313 67.5942 88.163 65.4978V68H96.2783V34.1864ZM101.325 68H109.44V47.9824C109.44 43.4514 113.025 40.4081 118.435 40.4081H121.208V34.1864C120.261 33.7807 118.841 33.5102 117.623 33.5102C114.512 33.5102 111.199 35.4037 109.44 38.1764V34.1864H101.325V68ZM124.376 29.0468H132.491V21.6078H124.376V29.0468ZM124.376 68H132.491V34.1864H124.376V68ZM152.94 68.9468C155.172 68.9468 157.471 68.541 158.688 68V62.1841H152.805C151.046 62.1841 149.829 61.0344 149.829 59.3437V40.9492H158.35V34.1864H149.829V21.6078H141.714V34.1864H136.304V40.9492H141.714V59.3437C141.714 65.092 146.177 68.9468 152.94 68.9468ZM162.591 68H191.67V60.8315H173.682L191.67 39.5966V34.1864H162.591V41.3549H180.579L162.591 62.5898V68ZM214.852 33.2397C210.727 33.2397 206.196 35.1332 203.626 37.9059V34.1864H195.51V80.5786H203.626V64.2805C206.196 67.0532 210.727 68.9468 214.852 68.9468C225.537 68.9468 232.705 61.7783 232.705 51.0932C232.705 40.4081 225.537 33.2397 214.852 33.2397ZM214.04 40.4081C220.397 40.4081 224.59 44.6686 224.59 51.0932C224.59 57.5178 220.397 61.7783 214.04 61.7783C207.819 61.7783 203.626 57.5178 203.626 51.0932C203.626 44.6686 207.819 40.4081 214.04 40.4081ZM235.732 68H243.848V47.9147C243.848 43.3837 247.161 40.4081 252.098 40.4081C257.035 40.4081 260.349 43.3837 260.349 47.9147V68H268.464V46.968C268.464 38.7175 262.31 33.2397 253.045 33.2397C249.731 33.2397 246.079 34.5922 243.848 36.6886V21.6078H235.732V68ZM289.825 68.9468C300.848 68.9468 308.152 61.7783 308.152 51.0932C308.152 40.4081 300.848 33.2397 289.825 33.2397C278.802 33.2397 271.498 40.4081 271.498 51.0932C271.498 61.7783 278.802 68.9468 289.825 68.9468ZM289.825 61.7783C283.671 61.7783 279.613 57.5178 279.613 51.0932C279.613 44.6686 283.671 40.4081 289.825 40.4081C295.979 40.4081 300.037 44.6686 300.037 51.0932C300.037 57.5178 295.979 61.7783 289.825 61.7783ZM311.157 68H319.272V47.9147C319.272 43.3837 322.586 40.4081 327.523 40.4081C332.46 40.4081 335.773 43.3837 335.773 47.9147V68H343.889V46.968C343.889 38.7175 337.735 33.2397 328.47 33.2397C325.156 33.2397 321.504 34.5922 319.272 36.6886V34.1864H311.157V68ZM365.25 68.9468C373.5 68.9468 380.533 63.9424 382.765 56.5034H374.514C372.959 59.8847 369.24 62.1841 365.25 62.1841C359.975 62.1841 355.917 58.6675 355.173 53.3249H382.9L383.577 52.6486V51.0932C383.577 40.4081 376.273 33.2397 365.25 33.2397C354.226 33.2397 346.923 40.4081 346.923 51.0932C346.923 61.7783 354.226 68.9468 365.25 68.9468ZM355.714 46.5622C357.27 42.3693 360.719 40.0024 365.25 40.0024C369.781 40.0024 373.23 42.3693 374.785 46.5622H355.714Z" fill="black" fill-opacity="0.85"/>
<path d="M98.9657 91.7926C74.1638 91.7926 48.0621 91.3971 1 102.511C28.4859 86.6917 99.5851 83.4291 130.878 85.2268C162.17 87.0245 179.75 87.3526 247.191 94.0269C331.99 102.419 368.099 95.0337 384.982 88.6879C385.317 88.5581 385.657 88.428 386 88.2977C385.669 88.4272 385.329 88.5573 384.982 88.6879C363.352 97.0617 357.681 104.426 301.796 104.426C232.934 104.426 178.222 91.7926 98.9657 91.7926Z" fill="url(#paint0_angular_905_3514)"/>
<path d="M1 102.511C48.0621 91.3971 74.1638 91.7926 98.9657 91.7926C178.222 91.7926 232.934 104.426 301.796 104.426C358.547 104.426 363.515 96.8315 386 88.2977C369.564 94.7231 333.735 102.592 247.191 94.0269C179.75 87.3526 162.17 87.0245 130.878 85.2268C99.5851 83.4291 28.4859 86.6917 1 102.511Z" stroke="#FF9900" stroke-width="0.79096" stroke-linecap="round"/>
<defs>
<radialGradient id="paint0_angular_905_3514" cx="0" cy="0" r="1" gradientUnits="userSpaceOnUse" gradientTransform="translate(193.994 90.766) rotate(90) scale(107.54 184.162)">
<stop stop-color="#F19B13"/>
<stop offset="0.479167" stop-color="#F7CC4F"/>
<stop offset="1" stop-color="#F4B70B"/>
</radialGradient>
</defs>
</svg>
