<svg width="37" height="37" viewBox="0 0 37 37" fill="none" xmlns="http://www.w3.org/2000/svg">
<path d="M31.5812 28.8958C32.5212 27.6357 33.1663 26.1806 33.4689 24.6379C33.7714 23.0952 33.7237 21.5043 33.3292 19.9825C32.9347 18.4607 32.2035 17.0469 31.1896 15.8454C30.1757 14.644 28.905 13.6855 27.4712 13.0408C27.1589 11.2439 26.4411 9.54193 25.3724 8.06405C24.3037 6.58618 22.9123 5.37134 21.3037 4.51184C19.6951 3.65235 17.9118 3.1708 16.0893 3.1038C14.2667 3.03681 12.4529 3.38611 10.7855 4.12519C9.11821 4.86426 7.64129 5.97366 6.46698 7.36908C5.29267 8.76449 4.45187 10.4092 4.00848 12.1783C3.56508 13.9474 3.53075 15.7942 3.9081 17.5785C4.28545 19.3629 5.06454 21.0377 6.18619 22.4758L4.10119 24.5458C3.89305 24.7567 3.75205 25.0246 3.69599 25.3156C3.63993 25.6066 3.67132 25.9076 3.78619 26.1808C3.89872 26.4547 4.08981 26.6892 4.33539 26.8547C4.58097 27.0202 4.87005 27.1093 5.16619 27.1108H13.7012C14.5512 28.9027 15.8912 30.4172 17.5663 31.4791C19.2414 32.5409 21.1829 33.1067 23.1662 33.1108H32.1662C32.4623 33.1093 32.7514 33.0202 32.997 32.8547C33.2426 32.6892 33.4337 32.4547 33.5462 32.1808C33.6611 31.9076 33.6924 31.6066 33.6364 31.3156C33.5803 31.0246 33.4393 30.7567 33.2312 30.5458L31.5812 28.8958ZM12.6662 22.6108C12.6682 23.1131 12.7084 23.6145 12.7862 24.1108H8.78118L9.30619 23.6008C9.44678 23.4614 9.55837 23.2955 9.63452 23.1127C9.71068 22.9299 9.74988 22.7338 9.74988 22.5358C9.74988 22.3378 9.71068 22.1417 9.63452 21.9589C9.55837 21.7761 9.44678 21.6102 9.30619 21.4708C8.46552 20.6394 7.79906 19.6487 7.34577 18.5566C6.89247 17.4646 6.66144 16.2932 6.66619 15.1108C6.66619 12.7238 7.6144 10.4347 9.30222 8.74684C10.9901 7.05901 13.2792 6.1108 15.6662 6.1108C17.5287 6.0996 19.3479 6.67237 20.8681 7.74859C22.3882 8.82481 23.5329 10.3504 24.1412 12.1108C23.8112 12.1108 23.4962 12.1108 23.1662 12.1108C20.3814 12.1108 17.7107 13.217 15.7416 15.1862C13.7724 17.1553 12.6662 19.826 12.6662 22.6108ZM28.4762 30.1108L28.5512 30.1858H23.1662C21.4312 30.1827 19.7509 29.5782 18.4117 28.4752C17.0724 27.3722 16.1569 25.839 15.8213 24.1368C15.4856 22.4346 15.7505 20.6687 16.5708 19.1398C17.3911 17.611 18.7161 16.4139 20.32 15.7523C21.924 15.0908 23.7076 15.0059 25.3672 15.5119C27.0267 16.018 28.4595 17.0838 29.4214 18.5277C30.3833 19.9717 30.8148 21.7044 30.6425 23.4308C30.4701 25.1573 29.7046 26.7705 28.4762 27.9958C28.1936 28.2727 28.0318 28.6501 28.0262 29.0458C28.027 29.2443 28.0672 29.4406 28.1445 29.6234C28.2217 29.8062 28.3345 29.9719 28.4762 30.1108Z" fill="black"/>
</svg>
