<svg width="36" height="36" viewBox="0 0 36 36" fill="none" xmlns="http://www.w3.org/2000/svg">
<path d="M30.9152 28.7845C31.8552 27.5244 32.5003 26.0693 32.8029 24.5266C33.1054 22.9839 33.0577 21.3929 32.6632 19.8711C32.2687 18.3493 31.5375 16.9355 30.5236 15.7341C29.5097 14.5326 28.239 13.5742 26.8052 12.9295C26.4929 11.1326 25.7751 9.4306 24.7064 7.95273C23.6377 6.47485 22.2462 5.26001 20.6377 4.40051C19.0291 3.54102 17.2458 3.05947 15.4233 2.99248C13.6007 2.92548 11.7868 3.27479 10.1195 4.01386C8.4522 4.75293 6.97527 5.86233 5.80096 7.25775C4.62665 8.65317 3.78586 10.2979 3.34246 12.067C2.89907 13.836 2.86474 15.6829 3.24208 17.4672C3.61943 19.2515 4.39853 20.9264 5.52017 22.3645L3.43517 24.4345C3.22703 24.6454 3.08604 24.9133 3.02998 25.2042C2.97392 25.4952 3.0053 25.7963 3.12017 26.0695C3.2327 26.3434 3.4238 26.5779 3.66938 26.7434C3.91496 26.9089 4.20403 26.998 4.50017 26.9995H13.0352C13.8851 28.7914 15.2252 30.3059 16.9003 31.3678C18.5754 32.4296 20.5169 32.9953 22.5002 32.9995H31.5002C31.7963 32.998 32.0854 32.9089 32.331 32.7434C32.5765 32.5779 32.7676 32.3434 32.8802 32.0695C32.995 31.7963 33.0264 31.4952 32.9704 31.2042C32.9143 30.9133 32.7733 30.6454 32.5652 30.4345L30.9152 28.7845ZM12.0002 22.4995C12.0022 23.0018 12.0423 23.5032 12.1202 23.9995H8.11517L8.64017 23.4895C8.78076 23.35 8.89235 23.1841 8.96851 23.0013C9.04466 22.8185 9.08387 22.6225 9.08387 22.4245C9.08387 22.2265 9.04466 22.0304 8.96851 21.8476C8.89235 21.6648 8.78076 21.4989 8.64017 21.3595C7.79951 20.528 7.13304 19.5373 6.67975 18.4453C6.22645 17.3533 5.99543 16.1818 6.00017 14.9995C6.00017 12.6125 6.94838 10.3233 8.63621 8.63551C10.324 6.94768 12.6132 5.99947 15.0002 5.99947C16.8627 5.98828 18.6819 6.56105 20.2021 7.63727C21.7222 8.71348 22.8669 10.239 23.4752 11.9995C23.1452 11.9995 22.8302 11.9995 22.5002 11.9995C19.7154 11.9995 17.0447 13.1057 15.0755 15.0748C13.1064 17.044 12.0002 19.7147 12.0002 22.4995ZM27.8102 29.9995L27.8852 30.0745H22.5002C20.7652 30.0714 19.0849 29.4668 17.7456 28.3639C16.4064 27.2609 15.4909 25.7277 15.1553 24.0255C14.8196 22.3233 15.0845 20.5573 15.9048 19.0285C16.7251 17.4997 18.0501 16.3025 19.654 15.641C21.2579 14.9795 23.0416 14.8945 24.7012 15.4006C26.3607 15.9067 27.7935 16.9725 28.7554 18.4164C29.7173 19.8603 30.1488 21.5931 29.9765 23.3195C29.8041 25.0459 29.0385 26.6592 27.8102 27.8845C27.5275 28.1614 27.3658 28.5388 27.3602 28.9345C27.361 29.1329 27.4012 29.3293 27.4784 29.5121C27.5557 29.6949 27.6684 29.8605 27.8102 29.9995Z" fill="black"/>
</svg>
